<?xml version="1.0" encoding="UTF-8" standalone="no"?>
<!-- Created with Inkscape (http://www.inkscape.org/) -->

<svg
   width="512"
   height="512"
   viewBox="0 0 512 512"
   version="1.1"
   id="svg1"
   inkscape:version="1.4 (e7c3feb100, 2024-10-09)"
   sodipodi:docname="branding.svg"
   xml:space="preserve"
   xmlns:inkscape="http://www.inkscape.org/namespaces/inkscape"
   xmlns:sodipodi="http://sodipodi.sourceforge.net/DTD/sodipodi-0.dtd"
   xmlns="http://www.w3.org/2000/svg"
   xmlns:svg="http://www.w3.org/2000/svg"><sodipodi:namedview
     id="namedview1"
     pagecolor="#ffffff"
     bordercolor="#000000"
     borderopacity="0.25"
     inkscape:showpageshadow="2"
     inkscape:pageopacity="0.0"
     inkscape:pagecheckerboard="0"
     inkscape:deskcolor="#d1d1d1"
     inkscape:document-units="px"
     inkscape:zoom="0.70710678"
     inkscape:cx="657.6093"
     inkscape:cy="152.73506"
     inkscape:window-width="1920"
     inkscape:window-height="1011"
     inkscape:window-x="0"
     inkscape:window-y="0"
     inkscape:window-maximized="1"
     inkscape:current-layer="layer1" /><defs
     id="defs1"><inkscape:path-effect
       effect="bspline"
       id="path-effect15"
       is_visible="true"
       lpeversion="1.3"
       weight="33.333333"
       steps="2"
       helper_size="0"
       apply_no_weight="true"
       apply_with_weight="true"
       only_selected="false"
       uniform="false" /></defs><g
     inkscape:groupmode="layer"
     id="layer2"
     inkscape:label="grid"
     style="display:none"><path
       style="font-variation-settings:'opsz' 32, 'wght' 700;fill:#1a1a1a;fill-opacity:0.269889;stroke:#1a1a1a;stroke-width:1;stroke-dasharray:none;stroke-opacity:0.467172"
       d="M 512,256 H 0"
       id="path5"
       inkscape:label="line" /><path
       style="font-variation-settings:'opsz' 32, 'wght' 700;fill:#1a1a1a;fill-opacity:0.269889;stroke:#1a1a1a;stroke-width:1;stroke-dasharray:none;stroke-opacity:0.467172"
       d="M 256,0 V 512"
       id="path6"
       inkscape:label="line" /><path
       style="font-variation-settings:'opsz' 32, 'wght' 700;fill:#1a1a1a;fill-opacity:0.269889;stroke:#1a1a1a;stroke-width:1;stroke-dasharray:none;stroke-opacity:0.467172"
       d="M 512,0 0,512"
       id="path7"
       inkscape:label="line" /><path
       style="font-variation-settings:'opsz' 32, 'wght' 700;fill:#1a1a1a;fill-opacity:0.269889;stroke:#1a1a1a;stroke-width:1;stroke-dasharray:none;stroke-opacity:0.467172"
       d="M 512,512 0,0"
       id="path8"
       inkscape:label="line" /><path
       style="font-variation-settings:'opsz' 32, 'wght' 700;fill:#1a1a1a;fill-opacity:0.269889;stroke:#1a1a1a;stroke-width:1.00098;stroke-dasharray:none;stroke-opacity:0.467172"
       d="M 255.5,106 H 512"
       id="path9"
       inkscape:label="line" /><path
       style="font-variation-settings:'opsz' 32, 'wght' 700;fill:#1a1a1a;fill-opacity:0.269889;stroke:#1a1a1a;stroke-width:1.00098;stroke-dasharray:none;stroke-opacity:0.467172"
       d="M 0,106 H 256.5"
       id="path9-9"
       inkscape:label="line" /><path
       style="font-variation-settings:'opsz' 32, 'wght' 700;fill:#1a1a1a;fill-opacity:0.269889;stroke:#1a1a1a;stroke-width:1;stroke-dasharray:none;stroke-opacity:0.467172"
       d="M 406,255.5 V 512"
       id="path10"
       inkscape:label="line" /><path
       style="font-variation-settings:'opsz' 32, 'wght' 700;fill:#1a1a1a;fill-opacity:0.269889;stroke:#1a1a1a;stroke-width:1;stroke-dasharray:none;stroke-opacity:0.467172"
       d="M 406,0 V 256.5"
       id="path10-7"
       inkscape:label="line" /><path
       style="font-variation-settings:'opsz' 32, 'wght' 700;fill:#1a1a1a;fill-opacity:0.269889;stroke:#1a1a1a;stroke-width:1;stroke-dasharray:none;stroke-opacity:0.467172"
       d="m 106.0283,255.50185 v 256.5"
       id="path10-7-6"
       inkscape:label="line" /><path
       style="font-variation-settings:'opsz' 32, 'wght' 700;fill:#1a1a1a;fill-opacity:0.269889;stroke:#1a1a1a;stroke-width:1;stroke-dasharray:none;stroke-opacity:0.467172"
       d="M 256.5,406 H 0"
       id="path11"
       inkscape:label="line" /><path
       style="font-variation-settings:'opsz' 32, 'wght' 700;fill:#1a1a1a;fill-opacity:0.269889;stroke:#1a1a1a;stroke-width:1;stroke-dasharray:none;stroke-opacity:0.467172"
       d="M 512,406 H 255.5"
       id="path11-6"
       inkscape:label="line" /><path
       style="font-variation-settings:'opsz' 32, 'wght' 700;display:inline;fill:#1a1a1a;fill-opacity:0.269889;stroke:#1a1a1a;stroke-width:1;stroke-dasharray:none;stroke-opacity:0.467172"
       d="M 106,255.5 105.0566,0"
       id="path12"
       inkscape:label="line" /><circle
       style="font-variation-settings:'opsz' 32, 'wght' 700;display:inline;fill:#ff5555;fill-opacity:0.491654;stroke:#4d4d4d;stroke-width:0;stroke-opacity:0.467172"
       id="path1-5"
       cx="256"
       cy="256"
       r="75"
       inkscape:label="zone" /></g><g
     inkscape:label="branding"
     inkscape:groupmode="layer"
     id="layer1"
     style="display:inline"><path
       d="m 256,206 a 50,50 0 0 0 -50,50 50,50 0 0 0 50,50 50,50 0 0 0 50,-50 50,50 0 0 0 -50,-50 z m 0,25 a 25,25 0 0 1 25,25 25,25 0 0 1 -25,25 25,25 0 0 1 -25,-25 25,25 0 0 1 25,-25 z"
       style="font-variation-settings:'opsz' 32, 'wght' 700;display:inline;fill:#333333;stroke:#333333;stroke-width:0;stroke-opacity:0.467172"
       id="path2"
       inkscape:label="inner"
       inkscape:transform-center-x="0.01953125"
       inkscape:transform-center-y="-0.0703125" /><path
       style="font-variation-settings:'opsz' 32, 'wght' 700;display:inline;fill:#333333;fill-opacity:1;stroke:#333333;stroke-width:0;stroke-dasharray:none;stroke-opacity:0.467172"
       d="m 258.42502,180.99456 c -2.23731,0.0416 -5.37217,-7.77046 0,-10.49267 C 357.48258,138.67536 406,154.44983 406,174.30622 c 0,14.07999 0,53.54172 -30.91206,53.54029 -19.98832,9.9e-4 -51.60789,-43.52934 -116.66292,-46.85195 z"
       id="path18"
       sodipodi:nodetypes="ccccc"
       inkscape:transform-center-x="-74.727182"
       inkscape:transform-center-y="-65.871261"
       inkscape:label="outer" /><path
       style="font-variation-settings:'opsz' 32, 'wght' 700;display:inline;fill:#333333;fill-opacity:1;stroke:#333333;stroke-width:0;stroke-dasharray:none;stroke-opacity:0.467172"
       d="m 322.14857,220.58281 c -1.15468,-1.91677 4.04333,-8.53766 9.08692,-5.24633 77.09136,69.87309 87.68898,119.77765 70.49284,129.70584 -12.19363,7.04 -46.36849,26.77086 -61.82328,-4.8e-4 -9.99502,-17.3099 11.89357,-66.45842 -17.75648,-124.45903 z"
       id="path19"
       sodipodi:nodetypes="ccccc"
       inkscape:transform-center-x="-74.727182"
       inkscape:transform-center-y="-65.871261"
       inkscape:label="outer" /><path
       style="font-variation-settings:'opsz' 32, 'wght' 700;display:inline;fill:#333333;fill-opacity:1;stroke:#333333;stroke-width:0;stroke-dasharray:none;stroke-opacity:0.467172"
       d="m 319.72591,295.56315 c 1.08263,-1.95837 9.4155,-0.76721 9.08692,5.24633 -21.9662,101.69963 -59.886,135.82972 -77.08214,125.90152 -12.19363,-7.03999 -46.36849,-26.77086 -30.91122,-53.54077 9.99331,-17.31089 63.50146,-22.92908 98.90644,-77.60708 z"
       id="path20"
       sodipodi:nodetypes="ccccc"
       inkscape:transform-center-x="-74.727182"
       inkscape:transform-center-y="-65.871261"
       inkscape:label="outer" /><path
       style="font-variation-settings:'opsz' 32, 'wght' 700;display:inline;fill:#333333;fill-opacity:1;stroke:#333333;stroke-width:0;stroke-dasharray:none;stroke-opacity:0.467172"
       d="m 253.57971,330.95523 c 2.23731,-0.0416 5.37217,7.77046 0,10.49267 -99.05756,31.82653 -147.57498,16.05206 -147.57498,-3.80433 0,-14.07999 0,-53.54172 30.91206,-53.54029 19.98832,-9.9e-4 51.60789,43.52934 116.66292,46.85195 z"
       id="path21"
       sodipodi:nodetypes="ccccc"
       inkscape:transform-center-x="-74.727182"
       inkscape:transform-center-y="-65.871261"
       inkscape:label="outer" /><path
       style="font-variation-settings:'opsz' 32, 'wght' 700;display:inline;fill:#333333;fill-opacity:1;stroke:#333333;stroke-width:0;stroke-dasharray:none;stroke-opacity:0.467172"
       d="m 189.85616,291.36698 c 1.15468,1.91677 -4.04333,8.53767 -9.08692,5.24634 -77.09136,-69.8731 -87.688983,-119.77765 -70.49284,-129.70585 12.19362,-7.03999 46.36849,-26.77086 61.82328,4.9e-4 9.99501,17.30989 -11.89357,66.45841 17.75648,124.45902 z"
       id="path22"
       sodipodi:nodetypes="ccccc"
       inkscape:transform-center-x="-74.727182"
       inkscape:transform-center-y="-65.871261"
       inkscape:label="outer" /><path
       style="font-variation-settings:'opsz' 32, 'wght' 700;display:inline;fill:#333333;fill-opacity:1;stroke:#333333;stroke-width:0;stroke-dasharray:none;stroke-opacity:0.467172"
       d="m 192.27881,216.38665 c -1.08262,1.95836 -9.4155,0.7672 -9.08691,-5.24634 21.96619,-101.69963 59.88599,-135.82971 77.08213,-125.901515 12.19363,7.039995 46.36849,26.770855 30.91122,53.540775 -9.9933,17.31089 -63.50146,22.92907 -98.90644,77.60708 z"
       id="path23"
       sodipodi:nodetypes="ccccc"
       inkscape:transform-center-x="-74.727182"
       inkscape:transform-center-y="-65.871261"
       inkscape:label="outer" /><path
       style="font-variation-settings:'opsz' 32, 'wght' 700;display:inline;fill:#333333;fill-opacity:1;stroke:#333333;stroke-width:0;stroke-dasharray:none;stroke-opacity:0.467172"
       d="m 192.27881,216.38665 c -1.08262,1.95836 -9.4155,0.7672 -9.08691,-5.24634 21.96619,-101.69963 59.88599,-135.82971 77.08213,-125.901515 12.19363,7.039995 46.36849,26.770855 30.91122,53.540775 -9.9933,17.31089 -63.50146,22.92907 -98.90644,77.60708 z"
       id="path28"
       sodipodi:nodetypes="ccccc"
       inkscape:transform-center-x="16.84827"
       inkscape:transform-center-y="-105.55086"
       inkscape:label="outer" /></g></svg>
