<?xml version="1.0" encoding="UTF-8" standalone="no"?>
<!-- Created with Inkscape (http://www.inkscape.org/) -->

<svg
   width="1020"
   height="512"
   viewBox="0 0 1020 512"
   version="1.1"
   id="svg1"
   inkscape:version="1.4 (e7c3feb100, 2024-10-09)"
   sodipodi:docname="branding_text_light.svg"
   xml:space="preserve"
   xmlns:inkscape="http://www.inkscape.org/namespaces/inkscape"
   xmlns:sodipodi="http://sodipodi.sourceforge.net/DTD/sodipodi-0.dtd"
   xmlns="http://www.w3.org/2000/svg"
   xmlns:svg="http://www.w3.org/2000/svg"><sodipodi:namedview
     id="namedview1"
     pagecolor="#323232"
     bordercolor="#000000"
     borderopacity="0.25"
     inkscape:showpageshadow="2"
     inkscape:pageopacity="0.0"
     inkscape:pagecheckerboard="0"
     inkscape:deskcolor="#d1d1d1"
     inkscape:document-units="px"
     inkscape:zoom="0.74760229"
     inkscape:cx="489.56511"
     inkscape:cy="306.9814"
     inkscape:window-width="1920"
     inkscape:window-height="1080"
     inkscape:window-x="1920"
     inkscape:window-y="0"
     inkscape:window-maximized="1"
     inkscape:current-layer="layer1" /><defs
     id="defs1"><inkscape:path-effect
       effect="bspline"
       id="path-effect15"
       is_visible="true"
       lpeversion="1.3"
       weight="33.333333"
       steps="2"
       helper_size="0"
       apply_no_weight="true"
       apply_with_weight="true"
       only_selected="false"
       uniform="false" /></defs><g
     inkscape:groupmode="layer"
     id="layer2"
     inkscape:label="grid"
     style="display:none"><path
       style="font-variation-settings:'opsz' 32, 'wght' 700;fill:#1a1a1a;fill-opacity:0.269889;stroke:#1a1a1a;stroke-width:0.893379;stroke-dasharray:none;stroke-opacity:0.467172"
       d="M 0,83.566143 H 1020"
       id="path9"
       inkscape:label="line"
       sodipodi:nodetypes="cc" /><path
       style="font-variation-settings:'opsz' 32, 'wght' 700;fill:#1a1a1a;fill-opacity:0.269889;stroke:#1a1a1a;stroke-width:1.60495;stroke-dasharray:none;stroke-opacity:0.467172"
       d="M 408.82487,-0.35355339 V 511.64645"
       id="path10-7"
       inkscape:label="line" /><path
       style="font-variation-settings:'opsz' 32, 'wght' 700;display:inline;fill:#1a1a1a;fill-opacity:0.269889;stroke:#1a1a1a;stroke-width:1.60495;stroke-dasharray:none;stroke-opacity:0.467172"
       d="M 103.46393,0 V 512"
       id="path10-7-5"
       inkscape:label="line" /><path
       style="font-variation-settings:'opsz' 32, 'wght' 700;display:inline;fill:#1a1a1a;fill-opacity:0.269889;stroke:#1a1a1a;stroke-width:1.41284;stroke-dasharray:none;stroke-opacity:0.467172"
       d="M 472.73905,-0.35355339 V 511.64645"
       id="path10-7-7"
       inkscape:label="line" /><path
       style="font-variation-settings:'opsz' 32, 'wght' 700;display:inline;fill:#1a1a1a;fill-opacity:0.269889;stroke:#1a1a1a;stroke-width:1.41284;stroke-dasharray:none;stroke-opacity:0.467172"
       d="M 919.00585,0 V 512"
       id="path10-7-7-2"
       inkscape:label="line" /><path
       style="font-variation-settings:'opsz' 32, 'wght' 700;fill:#1a1a1a;fill-opacity:0.269889;stroke:#1a1a1a;stroke-width:0.892505;stroke-dasharray:none;stroke-opacity:0.467172"
       d="M 1020,428.84777 H 0"
       id="path11-6"
       inkscape:label="line"
       sodipodi:nodetypes="cc" /><circle
       style="font-variation-settings:'opsz' 32, 'wght' 700;display:inline;fill:#ff5555;fill-opacity:0.491654;stroke:#4d4d4d;stroke-width:0;stroke-opacity:0.467172"
       id="path1-5"
       cx="256"
       cy="256"
       r="75"
       inkscape:label="zone" /></g><g
     inkscape:label="branding"
     inkscape:groupmode="layer"
     id="layer1"
     style="display:inline"><path
       d="m 256,206 a 50,50 0 0 0 -50,50 50,50 0 0 0 50,50 50,50 0 0 0 50,-50 50,50 0 0 0 -50,-50 z m 0,25 a 25,25 0 0 1 25,25 25,25 0 0 1 -25,25 25,25 0 0 1 -25,-25 25,25 0 0 1 25,-25 z"
       style="font-variation-settings:'opsz' 32, 'wght' 700;display:inline;fill:#ffffff;stroke:#ffffff;stroke-width:0;stroke-opacity:0.467172"
       id="path2"
       inkscape:label="inner"
       inkscape:transform-center-x="0.01953125"
       inkscape:transform-center-y="-0.0703125" /><path
       style="font-variation-settings:'opsz' 32, 'wght' 700;display:inline;fill:#ffffff;fill-opacity:1;stroke:#ffffff;stroke-width:0;stroke-dasharray:none;stroke-opacity:0.467172"
       d="m 258.42502,180.99456 c -2.23731,0.0416 -5.37217,-7.77046 0,-10.49267 C 357.48258,138.67536 406,154.44983 406,174.30622 c 0,14.07999 0,53.54172 -30.91206,53.54029 -19.98832,9.9e-4 -51.60789,-43.52934 -116.66292,-46.85195 z"
       id="path18"
       sodipodi:nodetypes="ccccc"
       inkscape:transform-center-x="-74.727182"
       inkscape:transform-center-y="-65.871261"
       inkscape:label="outer" /><path
       style="font-variation-settings:'opsz' 32, 'wght' 700;display:inline;fill:#ffffff;fill-opacity:1;stroke:#ffffff;stroke-width:0;stroke-dasharray:none;stroke-opacity:0.467172"
       d="m 322.14857,220.58281 c -1.15468,-1.91677 4.04333,-8.53766 9.08692,-5.24633 77.09136,69.87309 87.68898,119.77765 70.49284,129.70584 -12.19363,7.04 -46.36849,26.77086 -61.82328,-4.8e-4 -9.99502,-17.3099 11.89357,-66.45842 -17.75648,-124.45903 z"
       id="path19"
       sodipodi:nodetypes="ccccc"
       inkscape:transform-center-x="-109.40302"
       inkscape:transform-center-y="30.574025"
       inkscape:label="outer" /><path
       style="font-variation-settings:'opsz' 32, 'wght' 700;display:inline;fill:#ffffff;fill-opacity:1;stroke:#ffffff;stroke-width:0;stroke-dasharray:none;stroke-opacity:0.467172"
       d="m 319.72591,295.56315 c 1.08263,-1.95837 9.4155,-0.76721 9.08692,5.24633 -21.9662,101.69963 -59.886,135.82972 -77.08214,125.90152 -12.19363,-7.03999 -46.36849,-26.77086 -30.91122,-53.54077 9.99331,-17.31089 63.50146,-22.92908 98.90644,-77.60708 z"
       id="path20"
       sodipodi:nodetypes="ccccc"
       inkscape:transform-center-x="-16.848268"
       inkscape:transform-center-y="105.55086"
       inkscape:label="outer" /><path
       style="font-variation-settings:'opsz' 32, 'wght' 700;display:inline;fill:#ffffff;fill-opacity:1;stroke:#ffffff;stroke-width:0;stroke-dasharray:none;stroke-opacity:0.467172"
       d="m 253.57971,330.95523 c 2.23731,-0.0416 5.37217,7.77046 0,10.49267 -99.05756,31.82653 -147.57498,16.05206 -147.57498,-3.80433 0,-14.07999 0,-53.54172 30.91206,-53.54029 19.98832,-9.9e-4 51.60789,43.52934 116.66292,46.85195 z"
       id="path21"
       sodipodi:nodetypes="ccccc"
       inkscape:transform-center-x="74.727178"
       inkscape:transform-center-y="65.871256"
       inkscape:label="outer" /><path
       style="font-variation-settings:'opsz' 32, 'wght' 700;display:inline;fill:#ffffff;fill-opacity:1;stroke:#ffffff;stroke-width:0;stroke-dasharray:none;stroke-opacity:0.467172"
       d="m 189.85616,291.36698 c 1.15468,1.91677 -4.04333,8.53767 -9.08692,5.24634 -77.09136,-69.8731 -87.688983,-119.77765 -70.49284,-129.70585 12.19362,-7.03999 46.36849,-26.77086 61.82328,4.9e-4 9.99501,17.30989 -11.89357,66.45841 17.75648,124.45902 z"
       id="path22"
       sodipodi:nodetypes="ccccc"
       inkscape:transform-center-x="109.40302"
       inkscape:transform-center-y="-30.574023"
       inkscape:label="outer" /><path
       style="font-variation-settings:'opsz' 32, 'wght' 700;display:inline;fill:#ffffff;fill-opacity:1;stroke:#ffffff;stroke-width:0;stroke-dasharray:none;stroke-opacity:0.467172"
       d="m 192.27881,216.38665 c -1.08262,1.95836 -9.4155,0.7672 -9.08691,-5.24634 21.96619,-101.69963 59.88599,-135.82971 77.08213,-125.901515 12.19363,7.039995 46.36849,26.770855 30.91122,53.540775 -9.9933,17.31089 -63.50146,22.92907 -98.90644,77.60708 z"
       id="path23"
       sodipodi:nodetypes="ccccc"
       inkscape:transform-center-x="16.84827"
       inkscape:transform-center-y="-105.55086"
       inkscape:label="outer" /><path
       style="font-variation-settings:'opsz' 32, 'wght' 700;display:inline;fill:#ffffff;fill-opacity:1;stroke:#ffffff;stroke-width:0;stroke-dasharray:none;stroke-opacity:0.467172"
       d="m 192.27881,216.38665 c -1.08262,1.95836 -9.4155,0.7672 -9.08691,-5.24634 21.96619,-101.69963 59.88599,-135.82971 77.08213,-125.901515 12.19363,7.039995 46.36849,26.770855 30.91122,53.540775 -9.9933,17.31089 -63.50146,22.92907 -98.90644,77.60708 z"
       id="path28"
       sodipodi:nodetypes="ccccc"
       inkscape:transform-center-x="16.84827"
       inkscape:transform-center-y="-105.55086"
       inkscape:label="outer" /><text
       xml:space="preserve"
       style="font-style:normal;font-variant:normal;font-weight:normal;font-stretch:normal;font-size:335.738px;font-family:Inter;-inkscape-font-specification:'Inter, @opsz=32,wght=100';font-variant-ligatures:normal;font-variant-caps:normal;font-variant-numeric:normal;font-variant-east-asian:normal;font-variation-settings:'opsz' 32, 'wght' 100;text-align:start;writing-mode:lr-tb;direction:ltr;text-anchor:start;display:none;fill:#ffffff;fill-opacity:0.491654;stroke:#ffffff;stroke-width:0;stroke-opacity:0.467172"
       x="460.00284"
       y="377.06567"
       id="text23"
       inkscape:label="iris"><tspan
         sodipodi:role="line"
         id="tspan23"
         x="0"
         y="0"
         style="font-style:normal;font-variant:normal;font-weight:normal;font-stretch:normal;font-size:335.738px;font-family:Inter;-inkscape-font-specification:'Inter, @opsz=32,wght=700';font-variant-ligatures:normal;font-variant-caps:normal;font-variant-numeric:normal;font-variant-east-asian:normal;font-variation-settings:'opsz' 32, 'wght' 700;fill:#ffffff;fill-opacity:1;stroke:#ffffff;stroke-width:0;stroke-opacity:1">iris</tspan></text><path
       style="-inkscape-font-specification:'Inter, @opsz=32,wght=700';fill:#ffffff;stroke:#ffffff;stroke-width:0"
       d="M 477.87171,377.06567 V 203.95076 h 48.36069 v 173.11491 z m 24.09838,-194.9182 q -11.96723,0 -19.83609,-7.21313 -7.86886,-7.37705 -7.86886,-18.5246 0,-11.14755 7.86886,-18.36067 7.86886,-7.37706 19.67215,-7.37706 11.96723,0 19.83609,7.37706 7.86886,7.21312 7.86886,18.36067 0,11.14755 -7.86886,18.5246 -7.86886,7.21313 -19.67215,7.21313 z m 58.36071,194.9182 V 203.95076 h 46.55742 v 29.50823 h 0.4918 q 4.7541,-15.57379 14.91805,-23.11478 10.16394,-7.54099 27.37707,-7.54099 4.2623,0 7.70492,0.16394 3.60656,0 6.55739,0.16393 v 41.14758 q -2.62296,-0.16394 -8.68854,-0.4918 -5.90164,-0.32787 -12.13115,-0.32787 -9.83608,0 -17.70494,4.59016 -7.86886,4.42624 -12.29509,13.2787 -4.42623,8.85247 -4.42623,21.96724 v 93.77057 z m 127.01663,0 V 203.95076 h 48.3607 v 173.11491 z m 24.09838,-194.9182 q -11.96722,0 -19.83608,-7.21313 -7.86886,-7.37705 -7.86886,-18.5246 0,-11.14755 7.86886,-18.36067 7.86886,-7.37706 19.67215,-7.37706 11.96722,0 19.83608,7.37706 7.86886,7.21312 7.86886,18.36067 0,11.14755 -7.86886,18.5246 -7.86886,7.21313 -19.67215,7.21313 z m 130.32799,199.1805 q -22.45904,0 -40.00004,-6.88525 -17.541,-7.04919 -28.03281,-20.16395 Q 763.24914,341.164 761.60979,322.6394 h 47.54103 q 1.31147,11.31148 9.5082,17.70493 8.19673,6.39345 22.2951,6.39345 13.44264,0 20.98363,-5.08197 7.70493,-5.08198 7.70493,-13.11477 0,-6.88525 -5.90165,-11.14755 -5.73771,-4.2623 -16.39346,-6.22951 l -30.32789,-5.90165 q -25.24593,-4.91804 -38.36069,-17.70493 -13.11477,-12.7869 -13.11477,-32.78692 0,-16.39346 8.85247,-28.68855 9.0164,-12.29509 25.40986,-19.01641 16.55739,-6.72132 39.18036,-6.72132 22.45904,0 39.18036,7.21312 16.72133,7.04919 26.0656,20.16396 9.50821,13.11476 10.00001,31.14757 h -44.75414 q -0.16393,-10.49182 -8.19673,-17.37707 -8.03279,-6.88525 -20.98362,-6.88525 -12.45903,0 -19.50822,5.40984 -7.04918,5.24591 -7.04918,12.95083 0,6.72132 5.57377,10.98362 5.57378,4.2623 15.40985,6.39345 l 32.78692,6.39344 q 26.22953,5.08198 38.52462,16.72133 12.45903,11.47542 12.45903,30.65577 0,17.21313 -9.83608,30.16396 -9.67214,12.78689 -27.0492,20.00002 -17.21313,7.04918 -39.8361,7.04918 z"
       id="text23-6"
       inkscape:label="iris path"
       aria-label="iris" /></g></svg>
